Coordinates
version=1
nRows=27
nColumns=12
inDegrees=yes

Units are S.I. units (second, meters, Newtons, ...)
Angles are in degrees

endheader
time	SC_y	SC_z	SC_x	AC_y	AC_z	AC_x	GH_y	GH_z	GH_yy	EL_x	PS_y
       0.0              -35.83          1.325           5.45          36.92         -16.06          9.329         -16.02          39.65          68.62          99.96          148.8
   0.03594              -35.83          1.325          5.453          36.93         -16.06          9.328         -15.99          39.66          68.63          99.96          148.8
   0.07188              -35.83          1.324          5.457          36.93         -16.06          9.327         -15.96          39.66          68.63          99.96          148.8
    0.1078              -35.83          1.324          5.461          36.93         -16.05          9.325         -15.94          39.66          68.64          99.95          148.8
    0.1438              -35.83          1.323          5.466          36.93         -16.05          9.324         -15.91          39.67          68.65          99.95          148.8
    0.1797              -35.83          1.322           5.47          36.93         -16.05          9.322         -15.88          39.67          68.66          99.95          148.8
    0.2156              -35.82          1.322          5.475          36.94         -16.05           9.32         -15.84          39.68          68.67          99.95          148.8
    0.2516              -35.82          1.321           5.48          36.94         -16.05          9.318         -15.81          39.68          68.68          99.94          148.7
    0.2875              -35.82           1.32          5.486          36.94         -16.05          9.316         -15.77          39.69          68.69          99.94          148.7
    0.3234              -35.82           1.32          5.492          36.95         -16.05          9.314         -15.72           39.7           68.7          99.94          148.7
    0.3594              -35.82          1.319          5.498          36.95         -16.04          9.312         -15.68           39.7          68.71          99.93          148.7
    0.3953              -35.82          1.318          5.505          36.95         -16.04          9.309         -15.63          39.71          68.72          99.93          148.7
    0.4313              -35.81          1.317          5.513          36.96         -16.04          9.306         -15.58          39.72          68.73          99.93          148.6
    0.4672              -35.81          1.316          5.521          36.96         -16.04          9.303         -15.52          39.73          68.75          99.92          148.6
    0.5031              -35.81          1.315          5.529          36.96         -16.04            9.3         -15.46          39.74          68.76          99.92          148.6
    0.5391              -35.81          1.314          5.539          36.97         -16.03          9.297          -15.4          39.75          68.78          99.91          148.6
     0.575               -35.8          1.312          5.549          36.97         -16.03          9.293         -15.33          39.76           68.8          99.91          148.5
    0.6109               -35.8          1.311           5.56          36.98         -16.03          9.289         -15.25          39.77          68.82           99.9          148.5
    0.6469               -35.8          1.309          5.573          36.99         -16.03          9.284         -15.16          39.78          68.84           99.9          148.5
    0.6828              -35.79          1.308          5.586          36.99         -16.02           9.28         -15.07           39.8          68.86          99.89          148.4
    0.7188              -35.79          1.306          5.601           37.0         -16.02          9.274         -14.97          39.81          68.89          99.88          148.4
    0.7547              -35.79          1.304          5.617          37.01         -16.01          9.268         -14.85          39.83          68.92          99.87          148.3
    0.7906              -35.78          1.301          5.635          37.02         -16.01          9.262         -14.73          39.85          68.95          99.86          148.3
    0.8266              -35.78          1.299          5.655          37.03          -16.0          9.255         -14.59          39.87          68.99          99.85          148.2
    0.8625              -35.77          1.296          5.677          37.04          -16.0          9.246         -14.44          39.89          69.03          99.84          148.1
    0.8985              -35.76          1.293          5.701          37.05         -15.99          9.237         -14.27          39.92          69.07          99.83          148.1
    0.9344              -35.76          1.289          5.729          37.07         -15.99          9.227         -14.08          39.94          69.12          99.82          148.0
